<svg width="93" height="53" viewBox="0 0 93 53" fill="none" xmlns="http://www.w3.org/2000/svg">
<path fill-rule="evenodd" clip-rule="evenodd" d="M78.0647 9.80814V14.2184H86.296V16.1599C84.5576 17.5454 82.1415 18.0775 79.0755 18.0775C73.0381 18.0775 69.6334 15.7668 69.6334 11.5099C69.6334 7.25304 72.927 4.97598 78.97 4.97598C82.3025 4.97598 84.5242 5.70943 86.6737 7.37288L91.9558 3.98366C89.4231 1.87918 84.9797 0 78.8089 0C70.4776 0 64.7679 2.78521 62.9405 7.78036V0.714278H55.2257L45.8224 11.0737L36.4802 0.714278H28.571V7.32494C26.5437 3.11118 21.256 0.714278 13.8856 0.714278H0V22.2864H13.8856C21.2616 22.2864 26.5492 19.8895 28.5765 15.6758V22.296H35.5471V8.51381L45.4447 19.0602H45.8057L55.7089 8.51381V22.296H62.9294V15.2299C64.7679 20.2251 70.4887 23.0103 78.7978 23.0103C85.4629 23.0103 90.3395 21.0928 93 18.2165V9.80814H78.0647ZM13.3301 17.2961H7.2205V5.70464H13.3301C18.6344 5.70464 22.1169 7.6701 22.1169 11.5052C22.1169 15.3402 18.6344 17.2961 13.3301 17.2961ZM61.221 38.7832C61.221 37.7381 60.8218 36.6343 59.988 35.8475C59.1895 35.0842 58.0622 34.685 56.8997 34.685C55.7371 34.685 54.6098 35.0842 53.8113 35.8475C52.9775 36.6343 52.5783 37.7381 52.5783 38.7832C52.5783 39.8166 52.9775 40.9087 53.8113 41.7072C54.6098 42.4705 55.7371 42.8697 56.8997 42.8697C58.0622 42.8697 59.1895 42.4705 59.988 41.7072C60.8218 40.9087 61.221 39.8166 61.221 38.7832ZM56.8997 36.6578C57.4398 36.6578 58.0387 36.8691 58.4732 37.2801C58.8372 37.6324 59.1073 38.1726 59.1073 38.7832C59.1073 39.3821 58.8372 39.9223 58.4732 40.2863C58.1092 40.6503 57.5925 40.8969 56.8997 40.8969C56.2186 40.8969 55.6901 40.6386 55.3144 40.2746C55.0208 39.9927 54.692 39.5113 54.692 38.8185C54.692 38.2665 54.8916 37.6911 55.3144 37.2801C55.7371 36.8574 56.336 36.6578 56.8997 36.6578ZM38.9066 39.4173C38.296 40.0162 37.5679 40.0984 36.9573 40.0984H35.6773V42.6936H33.6458V34.8611H36.8868C37.5679 34.8611 38.2725 34.9903 38.8714 35.5657C39.482 36.1528 39.5994 36.8104 39.5994 37.468C39.5994 38.0904 39.5172 38.8185 38.9066 39.4173ZM36.3702 36.5051H35.6773V38.4544H36.3584C36.5698 38.4544 36.969 38.4309 37.2156 38.2078C37.4622 37.9964 37.474 37.6794 37.474 37.4915C37.474 37.2801 37.4505 36.9983 37.2391 36.7869C37.0043 36.5403 36.6285 36.5051 36.3702 36.5051ZM43.1219 42.6936V34.8611H46.2925C46.8796 34.8611 47.6312 34.955 48.2066 35.5539C48.6528 36.0119 48.8759 36.693 48.8759 37.3154C48.8759 37.9847 48.6411 38.5718 48.2535 38.9476C47.9482 39.2412 47.5372 39.4173 47.1732 39.4878L49.6275 42.6936H47.1027L45.1534 39.6874V42.6936H43.1219ZM45.5409 36.4346H45.1534V38.3722H45.5409C45.8463 38.3722 46.2807 38.29 46.5273 38.0552C46.68 37.9025 46.7857 37.6442 46.7857 37.3976C46.7857 37.1627 46.6917 36.9044 46.5156 36.74C46.3277 36.5521 45.9872 36.4346 45.5409 36.4346ZM13.9022 49.5105C13.9022 49.9288 14.7222 50.2758 15.784 50.3343L46.4926 52.6102C46.8478 52.6359 47.1954 52.6287 47.5204 52.593L77.3297 50.3229C78.3764 50.2444 79.0981 49.8974 79.0981 49.5105L79.0943 41.5293L79.0929 39.5104C79.0898 35.4201 79.0883 33.3421 79.0981 28.5301C79.0981 28.0718 78.1157 27.7005 76.9027 27.7005V27.6977H16.1052C14.8884 27.6977 13.9022 28.0703 13.9022 28.5301V49.5105ZM46.7348 49.2632L46.7372 49.2634C46.8929 49.2745 47.0359 49.2704 47.154 49.2574L47.2097 49.2513L75.7413 47.0785L75.7387 41.5315V41.5308L75.7372 39.5131V39.5089C75.7347 36.2153 75.7333 34.2237 75.7379 31.0562H73.5471V31.0534H17.2579V47.0787L46.7348 49.2632Z" fill="white"/>
</svg>
